<svg xmlns="http://www.w3.org/2000/svg" viewBox="0 0 130 181"><defs><style>.cls-1{fill:none;stroke:#925126;stroke-miterlimit:10;stroke-width:6px;}</style></defs><g id="Layer_2" data-name="Layer 2"><g id="Layer_3" data-name="Layer 3"><path class="cls-1" d="M61,64.5a29,29,0,0,0,.73,6.5h-51A29,29,0,0,1,10,64.5,29.49,29.49,0,0,1,35.63,35.26,29,29,0,0,1,39.5,35,29.49,29.49,0,0,1,65,49.67a29.13,29.13,0,0,0-3.87,12.07C61,62.65,61,63.57,61,64.5Z"/><path class="cls-1" d="M120,64.5a29,29,0,0,1-.73,6.5H61.73A29,29,0,0,1,61,64.5c0-.93,0-1.85.13-2.76A29.13,29.13,0,0,1,65,49.67,29.49,29.49,0,0,1,90.5,35a29,29,0,0,1,3.87.26A29.49,29.49,0,0,1,120,64.5Z"/><path class="cls-1" d="M94.5,32.5c0,.93,0,1.85-.13,2.76A29,29,0,0,0,90.5,35,29.49,29.49,0,0,0,65,49.67,29.49,29.49,0,0,0,39.5,35a29,29,0,0,0-3.87.26c-.09-.91-.13-1.83-.13-2.76a29.5,29.5,0,0,1,59,0Z"/><path class="cls-1" d="M127,71A62,62,0,1,1,3,71Z"/><path class="cls-1" d="M73,132.49V159H56V132.35a62.8,62.8,0,0,0,17,.14Z"/><path class="cls-1" d="M48,159H82a10,10,0,0,1,10,10v6.49A2.51,2.51,0,0,1,89.49,178h-49A2.51,2.51,0,0,1,38,175.49V169A10,10,0,0,1,48,159Z"/></g></g></svg>