<svg xmlns="http://www.w3.org/2000/svg" viewBox="0 0 130 160.5"><defs><style>.cls-1{fill:none;stroke:#925126;stroke-miterlimit:10;stroke-width:6px;}</style></defs><g id="Layer_2" data-name="Layer 2"><g id="Layer_3" data-name="Layer 3"><path class="cls-1" d="M103.92,41.92a38.51,38.51,0,0,1-1,8.58H27a38.51,38.51,0,0,1-1-8.58c0-1.22.05-2.44.17-3.64a38.51,38.51,0,0,1,5.1-15.92,38.92,38.92,0,0,1,72.57,19.56Z"/><path class="cls-1" d="M127,50.5a62,62,0,1,1-124,0Z"/><path class="cls-1" d="M73,112V138.5H56V111.85A62.8,62.8,0,0,0,73,112Z"/><path class="cls-1" d="M48,138.5H82a10,10,0,0,1,10,10V155a2.51,2.51,0,0,1-2.51,2.51h-49A2.51,2.51,0,0,1,38,155v-6.5a10,10,0,0,1,10-10Z"/></g></g></svg>