<svg xmlns="http://www.w3.org/2000/svg" viewBox="0 0 130 149"><defs><style>.cls-1{fill:none;stroke:#925126;stroke-miterlimit:10;stroke-width:6px;}</style></defs><g id="Layer_2" data-name="Layer 2"><g id="Layer_3" data-name="Layer 3"><path class="cls-1" d="M61,32.5a29,29,0,0,0,.73,6.5h-51A29,29,0,0,1,10,32.5,29.49,29.49,0,0,1,35.63,3.26,29,29,0,0,1,39.5,3,29.49,29.49,0,0,1,65,17.67a29.13,29.13,0,0,0-3.87,12.07C61,30.65,61,31.57,61,32.5Z"/><path class="cls-1" d="M120,32.5a29,29,0,0,1-.73,6.5H61.73A29,29,0,0,1,61,32.5c0-.93,0-1.85.13-2.76A29.13,29.13,0,0,1,65,17.67,29.49,29.49,0,0,1,90.5,3a29,29,0,0,1,3.87.26A29.49,29.49,0,0,1,120,32.5Z"/><path class="cls-1" d="M127,39A62,62,0,1,1,3,39Z"/><path class="cls-1" d="M73,100.49V127H56V100.35a62.8,62.8,0,0,0,17,.14Z"/><path class="cls-1" d="M48,127H82a10,10,0,0,1,10,10v6.49A2.51,2.51,0,0,1,89.49,146h-49A2.51,2.51,0,0,1,38,143.49V137A10,10,0,0,1,48,127Z"/></g></g></svg>