<svg xmlns="http://www.w3.org/2000/svg" viewBox="0 0 105 139.44"><defs><style>.cls-1{fill:#925126;}.cls-2{fill:none;stroke:#925126;stroke-linejoin:round;stroke-width:5px;}</style></defs><g id="Layer_2" data-name="Layer 2"><g id="Layer_3" data-name="Layer 3"><path class="cls-1" d="M94,5a6,6,0,0,1,0,12H11A6,6,0,0,1,11,5H94m0-5H11a11,11,0,0,0,0,22H94A11,11,0,0,0,94,0Z"/><path class="cls-1" d="M88.23,22.36,52.43,134.44,16.66,22.36H88.23m0-5H16.66a5,5,0,0,0-4.76,6.52L47.67,136a5,5,0,0,0,9.53,0L93,23.88a5,5,0,0,0-4.76-6.52Z"/><line class="cls-2" x1="47.24" y1="20" x2="21.21" y2="46.03"/><line class="cls-2" x1="83.97" y1="20" x2="30.97" y2="73"/><line class="cls-2" x1="76.67" y1="67" x2="40.67" y2="103"/></g></g></svg>