<svg xmlns="http://www.w3.org/2000/svg" viewBox="0 0 130 180"><defs><style>.cls-1{fill:none;stroke:#925126;stroke-miterlimit:10;stroke-width:6px;}</style></defs><g id="Layer_2" data-name="Layer 2"><g id="Layer_3" data-name="Layer 3"><path class="cls-1" d="M120,63.5a29,29,0,0,1-.73,6.5H61.73A29,29,0,0,1,61,63.5c0-.93,0-1.85.13-2.76A28.72,28.72,0,0,1,63,52.91l0,0c.06-.14.11-.29.18-.43.11-.32.25-.63.38-.93l.1-.21c.14-.32.29-.64.46-1s.16-.33.25-.5q.31-.61.66-1.2A29.49,29.49,0,0,1,90.5,34a29,29,0,0,1,3.87.26A29.52,29.52,0,0,1,114.3,46.05h0A29.43,29.43,0,0,1,120,63.5Z"/><path class="cls-1" d="M127,70A62,62,0,1,1,3,70Z"/><path class="cls-1" d="M73,131.49V158H56V131.35a62.8,62.8,0,0,0,17,.14Z"/><path class="cls-1" d="M48,158H82a10,10,0,0,1,10,10v6.49A2.51,2.51,0,0,1,89.49,177h-49A2.51,2.51,0,0,1,38,174.49V168A10,10,0,0,1,48,158Z"/><path class="cls-1" d="M61,63.5a29,29,0,0,0,.73,6.5h-51a29.44,29.44,0,0,1,4.38-23.09A29.43,29.43,0,0,1,35.63,34.26,29,29,0,0,1,39.5,34,29.49,29.49,0,0,1,65,48.67a29.07,29.07,0,0,0-3.32,8.53,27.74,27.74,0,0,0-.55,3.54C61,61.65,61,62.57,61,63.5Z"/><path class="cls-1" d="M56,33.5a30,30,0,0,0,.59,6A29.32,29.32,0,0,0,39.5,34a29,29,0,0,0-3.87.26A29.43,29.43,0,0,0,15.11,46.91,30.49,30.49,0,0,1,64.5,12.39,30.4,30.4,0,0,0,56,33.5Z"/><path class="cls-1" d="M117,33.5a30.42,30.42,0,0,1-2.7,12.55A29.52,29.52,0,0,0,94.37,34.26,29,29,0,0,0,90.5,34,29.49,29.49,0,0,0,65,48.67a29.64,29.64,0,0,0-8.41-9.21,30,30,0,0,1-.59-6,30.5,30.5,0,0,1,61,0Z"/></g></g></svg>