<svg xmlns="http://www.w3.org/2000/svg" viewBox="0 0 135.71 86.73"><defs><style>.cls-1{fill:none;stroke:#89542f;stroke-linecap:round;stroke-linejoin:round;stroke-width:6px;}</style></defs><g id="Layer_2" data-name="Layer 2"><g id="Layer_5" data-name="Layer 5"><g id="Group_38" data-name="Group 38"><g id="Group_36" data-name="Group 36"><path id="Path_32" data-name="Path 32" class="cls-1" d="M9.75,3H126a6.76,6.76,0,0,1,6.75,6.76V77A6.75,6.75,0,0,1,126,83.73H9.75A6.75,6.75,0,0,1,3,77V9.76A6.76,6.76,0,0,1,9.75,3Z"/><path id="Path_33" data-name="Path 33" class="cls-1" d="M132.71,54.23a29.51,29.51,0,0,0-29.51,29.5"/><path id="Path_34" data-name="Path 34" class="cls-1" d="M103.2,3a29.5,29.5,0,0,0,29.5,29.5h0"/><path id="Path_35" data-name="Path 35" class="cls-1" d="M3,32.51A29.51,29.51,0,0,0,32.51,3h0"/><path id="Path_36" data-name="Path 36" class="cls-1" d="M32.51,83.73A29.52,29.52,0,0,0,3,54.22"/></g><g id="Group_37" data-name="Group 37"><circle id="Ellipse_1" data-name="Ellipse 1" class="cls-1" cx="67.85" cy="43.37" r="23.37"/><path id="Path_37" data-name="Path 37" class="cls-1" d="M74.27,37a6.41,6.41,0,0,0-6.51-6.41,6.51,6.51,0,0,0-6.32,6.32,6.41,6.41,0,0,0,6.41,6.51"/><path id="Path_38" data-name="Path 38" class="cls-1" d="M61.44,49.78a6.41,6.41,0,0,0,6.5,6.41,6.49,6.49,0,0,0,6.32-6.32,6.41,6.41,0,0,0-6.41-6.5h0"/><path id="Path_39" data-name="Path 39" class="cls-1" d="M67.85,56.16v3.25"/><path id="Path_40" data-name="Path 40" class="cls-1" d="M67.85,27.32v3.25"/></g></g></g></g></svg>