<svg xmlns="http://www.w3.org/2000/svg" viewBox="0 0 130 113"><defs><style>.cls-1{fill:none;stroke:#925126;stroke-miterlimit:10;stroke-width:6px;}</style></defs><g id="Layer_2" data-name="Layer 2"><g id="Layer_3" data-name="Layer 3"><path class="cls-1" d="M127,3A62,62,0,0,1,73,64.49,62.14,62.14,0,0,1,65,65a62.11,62.11,0,0,1-9-.65A62,62,0,0,1,3,3Z"/><path class="cls-1" d="M73,64.49V91H56V64.35A62.11,62.11,0,0,0,65,65,62.14,62.14,0,0,0,73,64.49Z"/><path class="cls-1" d="M48,91H82a10,10,0,0,1,10,10v6.49A2.51,2.51,0,0,1,89.49,110h-49A2.51,2.51,0,0,1,38,107.49V101A10,10,0,0,1,48,91Z"/></g></g></svg>